# xmcd
#
# Track frame offsets: 
#        150
#        23053
#        42428
#        58564
#        76029
#        97123
#        117782
#        138920
#        158982
#        177342
#        198772
#        220316
#        243879
#        260048
#        281225
#
# Disc length: 3980 seconds
#
# Revision: 0
# Processed by: cddbd v1.5.2PL0 Copyright (c) Steve Scherf et al.
# Submitted via: ExactAudioCopy v1.0b3
#
DISCID=d10f8a0f
DTITLE=群星 - TEST-CD试音极品10-A
DYEAR=2012
DGENRE=stereo
TTITLE0=我们的歌谣
TTITLE1=梦的翅膀受了伤
TTITLE2=我的歌声里
TTITLE3=逐梦令
TTITLE4=对爱期待
TTITLE5=我还爱着你
TTITLE6=多想把你留住
TTITLE7=忍痛割爱
TTITLE8=断桥残雪
TTITLE9=鱼水情歌
TTITLE10=嘀嗒
TTITLE11=老地方的雨
TTITLE12=落花
TTITLE13=悲伤的眼泪逆流成河
TTITLE14=Rolling In The Deep
EXTD=
EXTT0=
EXTT1=
EXTT2=
EXTT3=
EXTT4=
EXTT5=
EXTT6=
EXTT7=
EXTT8=
EXTT9=
EXTT10=
EXTT11=
EXTT12=
EXTT13=
EXTT14=
PLAYORDER=
